<svg width="287" height="44" viewBox="0 0 287 44" fill="none" xmlns="http://www.w3.org/2000/svg">
<path d="M67.6623 1.65552H86.7964C96.686 1.65552 103.136 8.30764 103.136 16.401C103.136 24.4944 96.686 31.1465 86.7964 31.1465H77.9818V42.1225H67.5548V1.65552H67.6623ZM86.4739 21.3901C90.4512 21.3901 92.3862 19.3945 92.3862 16.5119C92.3862 13.5185 90.4512 11.6337 86.4739 11.6337H77.9818V21.501H86.4739V21.3901Z" fill="black"/>
<path d="M200.741 1.65552H216.005C229.12 1.65552 237.827 10.6359 237.827 21.9445C237.827 33.2531 229.12 42.2334 216.005 42.2334H200.741V1.65552ZM215.898 32.477C222.885 32.477 226.862 28.4857 226.862 22.0554C226.862 15.625 222.885 11.6337 215.898 11.6337H211.168V32.477H215.898V32.477Z" fill="black"/>
<path d="M265.023 0.546875C277.922 0.546875 286.952 10.4142 286.952 22.0554C286.952 33.6966 277.922 43.453 265.023 43.453C252.124 43.453 243.094 33.5857 243.094 21.9445C243.094 10.3033 252.016 0.546875 265.023 0.546875ZM265.023 33.5857C271.473 33.5857 275.987 28.9292 275.987 21.9445C275.987 14.9598 271.473 10.3033 265.023 10.3033C258.573 10.3033 254.058 14.9598 254.058 21.9445C254.058 28.9292 258.573 33.5857 265.023 33.5857Z" fill="black"/>
<path d="M134.417 35.1379H117.217L114.423 42.3443H103.028L120.442 1.76648H131.407L148.821 42.3443H137.211L134.417 35.1379ZM130.654 25.2706L125.817 12.9642L120.98 25.2706H130.654Z" fill="black"/>
<path d="M190.421 1.65552V42.3442H181.822L164.408 20.2814V42.3442H153.981V1.65552H162.688L179.994 23.7184V1.65552H190.421Z" fill="black"/>
<path d="M15.7422 15.2925V24.2728L21.7619 19.7272L15.7422 15.2925Z" fill="black"/>
<path d="M0.0479736 42.677H52.183V2.09912H0.0479736V42.677ZM41.756 36.1357H36.5962V30.9249L29.5016 25.6032L33.9089 22.2772L36.5962 24.2728V15.2925L15.7422 30.9249V36.1357H10.5825V12.1881L15.7422 8.75123L26.1692 16.512L36.5962 8.75123L41.756 12.1881V36.1357Z" fill="black"/>
</svg>
